<svg width="7" height="9" viewBox="0 0 7 9" fill="none" xmlns="http://www.w3.org/2000/svg">
<path d="M0.707386 9V7.67045L3.81392 4.79403C4.07813 4.53835 4.29972 4.30824 4.47869 4.10369C4.66051 3.89915 4.7983 3.69886 4.89205 3.50284C4.9858 3.30398 5.03267 3.08949 5.03267 2.85938C5.03267 2.60369 4.97443 2.38352 4.85795 2.19886C4.74148 2.01136 4.58239 1.8679 4.38068 1.76847C4.17898 1.66619 3.95028 1.61506 3.6946 1.61506C3.42756 1.61506 3.1946 1.66903 2.99574 1.77699C2.79688 1.88494 2.64347 2.03977 2.53551 2.24148C2.42756 2.44318 2.37358 2.68324 2.37358 2.96165H0.622159C0.622159 2.39062 0.75142 1.89489 1.00994 1.47443C1.26847 1.05398 1.63068 0.728693 2.09659 0.498579C2.5625 0.268466 3.09943 0.153409 3.70739 0.153409C4.33239 0.153409 4.87642 0.264204 5.33949 0.485795C5.8054 0.704545 6.16761 1.00852 6.42614 1.39773C6.68466 1.78693 6.81392 2.23295 6.81392 2.7358C6.81392 3.06534 6.74858 3.39062 6.6179 3.71165C6.49006 4.03267 6.26136 4.3892 5.93182 4.78125C5.60227 5.17045 5.13778 5.63778 4.53835 6.18324L3.2642 7.43182V7.49148H6.92898V9H0.707386Z" fill="white"/>
</svg>
